<svg width="80" height="18" viewBox="0 0 80 18" fill="none" xmlns="http://www.w3.org/2000/svg">
<path fill-rule="evenodd" clip-rule="evenodd" d="M17.7305 11.6123C17.9355 11.1337 18.0381 10.6234 18.0381 10.0811V4.19531H16.083V10.0811C16.083 10.3499 16.0306 10.6028 15.9258 10.8398C15.8255 11.0768 15.6865 11.2841 15.5088 11.4619C15.3311 11.6396 15.1214 11.7809 14.8799 11.8857C14.6429 11.9861 14.39 12.0361 14.1211 12.0361C13.9479 12.0361 13.777 12.0133 13.6084 11.9677C13.4398 11.9222 13.2826 11.8561 13.1367 11.7695V13.875C13.4648 13.957 13.793 13.998 14.1211 13.998C14.6634 13.998 15.1715 13.8955 15.6455 13.6904C16.124 13.4854 16.5387 13.2073 16.8896 12.8564C17.2451 12.5009 17.5254 12.0862 17.7305 11.6123V11.6123ZM39.8857 13.998H41.8477V10.0811H44.7871V8.11914H41.8477V6.15723H46.749V4.19531H39.8857V13.998V13.998Z" fill="#5D6FFF"/>
<path fill-rule="evenodd" clip-rule="evenodd" d="M49.7637 4.68945C49.7637 4.86264 49.7295 5.02441 49.6611 5.1748C49.5973 5.3252 49.5085 5.45737 49.3945 5.57129C49.2806 5.68066 49.1462 5.76953 48.9912 5.83789C48.8408 5.9017 48.679 5.93359 48.5059 5.93359C48.3327 5.93359 48.1686 5.9017 48.0137 5.83789C47.8633 5.76953 47.7311 5.68066 47.6172 5.57129C47.5078 5.45737 47.4189 5.3252 47.3506 5.1748C47.2868 5.02441 47.2549 4.86264 47.2549 4.68945C47.2549 4.52084 47.2868 4.36133 47.3506 4.21094C47.4189 4.056 47.5078 3.92383 47.6172 3.81445C47.7311 3.70053 47.8633 3.61166 48.0137 3.54785C48.1686 3.47949 48.3327 3.44531 48.5059 3.44531C48.679 3.44531 48.8408 3.47949 48.9912 3.54785C49.1462 3.61166 49.2806 3.70053 49.3945 3.81445C49.5085 3.92383 49.5973 4.056 49.6611 4.21094C49.7295 4.36133 49.7637 4.52084 49.7637 4.68945V4.68945ZM38.3545 11.8467C38.5505 11.3727 38.6484 10.8486 38.6484 10.2744C38.6484 9.71387 38.5505 9.19888 38.3545 8.72949C38.1585 8.25552 37.8919 7.84537 37.5547 7.49902C37.2174 7.15268 36.821 6.88379 36.3652 6.69238C35.9141 6.49643 35.4287 6.39844 34.9092 6.39844C34.7406 6.39844 34.5674 6.41666 34.3896 6.45312C34.2119 6.48505 34.0387 6.53287 33.8701 6.59668C33.7061 6.66049 33.5511 6.74252 33.4053 6.84277C33.264 6.94302 33.1432 7.05698 33.043 7.18457V3.7666H31.1699V10.2744C31.1699 10.8395 31.2679 11.359 31.4639 11.833C31.6599 12.3024 31.9264 12.708 32.2637 13.0498C32.6055 13.3916 33.002 13.6582 33.4531 13.8496C33.9089 14.041 34.3942 14.1367 34.9092 14.1367C35.4287 14.1367 35.9141 14.0433 36.3652 13.8564C36.821 13.6696 37.2174 13.4076 37.5547 13.0703C37.8919 12.7285 38.1585 12.3206 38.3545 11.8467V11.8467ZM65.3701 14H65.8213V3.7666H63.9413V7.18457C63.8411 7.03873 63.7181 6.91568 63.5723 6.81543C63.4264 6.71518 63.2692 6.63541 63.1006 6.57617C62.9365 6.51236 62.7656 6.4668 62.5879 6.43945C62.4147 6.41211 62.2461 6.39844 62.082 6.39844C61.5671 6.39844 61.0817 6.49643 60.626 6.69238C60.1747 6.88837 59.7783 7.15952 59.4365 7.50586C59.0992 7.8522 58.8327 8.26236 58.6367 8.73633C58.4408 9.2103 58.3428 9.72299 58.3428 10.2744C58.3428 10.8304 58.4408 11.3454 58.6367 11.8193C58.8327 12.2887 59.0992 12.6966 59.4365 13.043C59.7783 13.3848 60.1747 13.6536 60.626 13.8496C61.0817 14.041 61.5671 14.1367 62.082 14.1367C62.319 14.1367 62.5514 14.1071 62.7793 14.0479C63.0117 13.9886 63.2372 13.9089 63.4561 13.8086C63.6747 13.7038 63.8822 13.583 64.0781 13.4463C64.2786 13.305 64.4678 13.1546 64.6454 12.9951L65.3701 14V14ZM70.3809 12.2568C70.3079 12.2477 70.235 12.2318 70.1621 12.209L73.6621 7.99121C73.4889 7.74512 73.2884 7.52408 73.0605 7.32812C72.8327 7.12759 72.5866 6.95898 72.3223 6.82227C72.0625 6.68555 71.7868 6.58072 71.4951 6.50781C71.2035 6.43491 70.9049 6.39844 70.5996 6.39844C70.0846 6.39844 69.5993 6.49185 69.1436 6.67871C68.6924 6.86557 68.2959 7.12759 67.9541 7.46484C67.6169 7.80206 67.3503 8.20996 67.1543 8.68848C66.9583 9.16699 66.8604 9.69565 66.8604 10.2744C66.8604 10.8395 66.9583 11.359 67.1543 11.833C67.3503 12.3024 67.6169 12.708 67.9541 13.0498C68.2959 13.3916 68.6924 13.6582 69.1436 13.8496C69.5993 14.041 70.0846 14.1367 70.5996 14.1367C70.9049 14.1367 71.2012 14.1003 71.4883 14.0273C71.7799 13.959 72.0557 13.8564 72.3154 13.7197C72.5798 13.583 72.8236 13.4167 73.0469 13.2207C73.2747 13.0247 73.4753 12.8037 73.6484 12.5576L72.2812 11.1836C72.2083 11.3477 72.1126 11.498 71.9941 11.6348C71.8802 11.7669 71.748 11.8809 71.5977 11.9766C71.4518 12.0677 71.2946 12.1383 71.126 12.1885C70.9574 12.2386 70.7819 12.2637 70.5996 12.2637C70.5267 12.2637 70.4538 12.2614 70.3809 12.2568V12.2568ZM52.7373 14H50.8711V6.67871H51.3223L51.9375 7.38965C52.2383 7.11621 52.5778 6.90659 52.9561 6.76074C53.3389 6.61035 53.7376 6.53516 54.1523 6.53516C54.599 6.53516 55.0205 6.62173 55.417 6.79492C55.8135 6.96353 56.1598 7.19824 56.4561 7.49902C56.7523 7.79526 56.9847 8.14389 57.1533 8.54492C57.3265 8.94141 57.4131 9.36523 57.4131 9.81641V14H55.5469V9.81641C55.5469 9.625 55.5104 9.44498 55.4375 9.27637C55.3646 9.10318 55.2643 8.95279 55.1367 8.8252C55.0091 8.6976 54.861 8.59732 54.6924 8.52441C54.5238 8.45151 54.3438 8.41504 54.1523 8.41504C53.9564 8.41504 53.7718 8.45151 53.5986 8.52441C53.4255 8.59732 53.2751 8.6976 53.1475 8.8252C53.0199 8.9528 52.9196 9.10319 52.8467 9.27637C52.7738 9.44498 52.7373 9.625 52.7373 9.81641V14V14ZM47.5625 14H49.4424V6.67871H47.5625V14ZM74.6055 14H76.4717V9.9668C76.4717 9.77084 76.5081 9.58627 76.5811 9.41309C76.6541 9.2399 76.7542 9.08951 76.8818 8.96191C77.0094 8.83432 77.1599 8.73404 77.333 8.66113C77.5062 8.58823 77.6909 8.55176 77.8867 8.55176H79.5342V6.69238H77.8867C77.4766 6.69238 77.0801 6.76758 76.6973 6.91797C76.3145 7.06381 75.9727 7.27344 75.6719 7.54688L75.0566 6.67871H74.6055V14ZM36.6182 9.48828C36.7184 9.72983 36.7686 9.99185 36.7686 10.2744C36.7686 10.557 36.7184 10.819 36.6182 11.0605C36.5225 11.3021 36.3903 11.5117 36.2217 11.6895C36.0531 11.8672 35.8548 12.0085 35.627 12.1133C35.4036 12.2135 35.1644 12.2637 34.9092 12.2637C34.654 12.2637 34.4124 12.2135 34.1846 12.1133C33.9613 12.0085 33.7653 11.8672 33.5967 11.6895C33.4281 11.5117 33.2959 11.3021 33.2002 11.0605C33.1045 10.819 33.0566 10.557 33.0566 10.2744C33.0566 10.0192 33.1045 9.7731 33.2002 9.53613C33.2959 9.29459 33.4281 9.08267 33.5967 8.90039C33.7653 8.71353 33.9613 8.56543 34.1846 8.45605C34.4124 8.3421 34.654 8.28516 34.9092 8.28516C35.1644 8.28516 35.4036 8.3353 35.627 8.43555C35.8548 8.5358 36.0531 8.6748 36.2217 8.85254C36.3903 9.03027 36.5225 9.24219 36.6182 9.48828ZM63.9414 10.2744C63.9414 10.0192 63.8914 9.7731 63.791 9.53613C63.6953 9.29459 63.5632 9.08267 63.3945 8.90039C63.226 8.71353 63.0277 8.56543 62.7998 8.45605C62.5765 8.3421 62.3372 8.28516 62.082 8.28516C61.8268 8.28516 61.5853 8.33072 61.3574 8.42188C61.1342 8.51303 60.9382 8.64517 60.7695 8.81836C60.6055 8.98697 60.4756 9.19434 60.3799 9.44043C60.2842 9.68652 60.2363 9.96451 60.2363 10.2744C60.2363 10.5433 60.2842 10.7985 60.3799 11.04C60.4756 11.2816 60.6055 11.4935 60.7695 11.6758C60.9382 11.8581 61.1342 12.0016 61.3574 12.1064C61.5853 12.2113 61.8268 12.2637 62.082 12.2637C62.3372 12.2637 62.5765 12.209 62.7998 12.0996C63.0277 11.9857 63.226 11.8376 63.3945 11.6553C63.5632 11.4684 63.6953 11.2565 63.791 11.0195C63.8914 10.778 63.9414 10.5296 63.9414 10.2744V10.2744ZM71.1191 8.36035C71.0326 8.32846 70.946 8.30792 70.8594 8.29883C70.7773 8.2897 70.6908 8.28516 70.5996 8.28516C70.3444 8.28516 70.1029 8.33301 69.875 8.42871C69.6517 8.51987 69.4557 8.65201 69.2871 8.8252C69.123 8.99835 68.9932 9.20801 68.8975 9.4541C68.8018 9.69565 68.7539 9.96909 68.7539 10.2744C68.7539 10.3428 68.7562 10.4202 68.7607 10.5068C68.7699 10.5934 68.7812 10.6823 68.7949 10.7734C68.8132 10.86 68.8337 10.9443 68.8564 11.0264C68.8792 11.1084 68.9089 11.1813 68.9453 11.2451L71.1191 8.36035V8.36035Z" fill="#04283E"/>
<path fill-rule="evenodd" clip-rule="evenodd" d="M28.624 12.0366L24.935 8.34766L21.3379 11.9447L25.0269 15.6337L28.624 12.0366Z" stroke="#04283E" stroke-width="2"/>
<path fill-rule="evenodd" clip-rule="evenodd" d="M22.2838 9.61661C23.812 11.1447 26.2585 11.1757 27.7484 9.68591C29.2382 8.19606 29.2072 5.74951 27.6791 4.22138C26.151 2.69326 23.7044 2.66224 22.2146 4.15209C20.7247 5.64194 20.7557 8.08849 22.2838 9.61661Z" fill="white"/>
<path fill-rule="evenodd" clip-rule="evenodd" d="M22.7322 9.16738C24.0057 10.4409 26.0445 10.4668 27.2859 9.22536C28.5274 7.98388 28.5015 5.94509 27.228 4.67159C25.9545 3.39809 23.9157 3.37213 22.6742 4.61361C21.4327 5.85508 21.4587 7.89388 22.7322 9.16738V9.16738Z" fill="#C8C8C8" fill-opacity="0.02"/>
<path fill-rule="evenodd" clip-rule="evenodd" d="M22.7322 9.16738C24.0057 10.4409 26.0445 10.4668 27.2859 9.22536C28.5274 7.98388 28.5015 5.94509 27.228 4.67159C25.9545 3.39809 23.9157 3.37213 22.6742 4.61361C21.4327 5.85508 21.4587 7.89388 22.7322 9.16738V9.16738Z" stroke="#5D6FFF" stroke-width="2"/>
</svg>
